<mxfile host="app.diagrams.net" modified="2021-12-16T11:31:03.040Z" agent="5.0 (Windows NT 10.0; Win64; x64) AppleWebKit/537.36 (KHTML, like Gecko) Chrome/96.0.4664.110 Safari/537.36" etag="hFZcJ3hnhrq2wX2VCyve" version="15.9.6" type="github">
  <diagram id="8X0cf4hSrnNCVk-6rKyq" name="Page-1">
    <mxGraphModel dx="1108" dy="450" grid="1" gridSize="10" guides="1" tooltips="1" connect="1" arrows="1" fold="1" page="1" pageScale="1" pageWidth="827" pageHeight="1169" math="0" shadow="0">
      <root>
        <mxCell id="0" />
        <mxCell id="1" parent="0" />
        <mxCell id="aP_WAAHKaWJk4GoByLol-3" value="" style="edgeStyle=orthogonalEdgeStyle;rounded=0;orthogonalLoop=1;jettySize=auto;html=1;" parent="1" source="aP_WAAHKaWJk4GoByLol-1" target="aP_WAAHKaWJk4GoByLol-2" edge="1">
          <mxGeometry relative="1" as="geometry" />
        </mxCell>
        <mxCell id="aP_WAAHKaWJk4GoByLol-1" value="ISR(INT9_vect)" style="rounded=1;whiteSpace=wrap;html=1;" parent="1" vertex="1">
          <mxGeometry x="140" y="60" width="120" height="60" as="geometry" />
        </mxCell>
        <mxCell id="aP_WAAHKaWJk4GoByLol-5" value="" style="edgeStyle=orthogonalEdgeStyle;rounded=0;orthogonalLoop=1;jettySize=auto;html=1;" parent="1" source="aP_WAAHKaWJk4GoByLol-2" target="aP_WAAHKaWJk4GoByLol-4" edge="1">
          <mxGeometry relative="1" as="geometry" />
        </mxCell>
        <mxCell id="aP_WAAHKaWJk4GoByLol-8" value="" style="edgeStyle=orthogonalEdgeStyle;rounded=0;orthogonalLoop=1;jettySize=auto;html=1;" parent="1" source="aP_WAAHKaWJk4GoByLol-2" target="aP_WAAHKaWJk4GoByLol-7" edge="1">
          <mxGeometry relative="1" as="geometry" />
        </mxCell>
        <mxCell id="aP_WAAHKaWJk4GoByLol-2" value="Is echoFlag = 0?" style="rhombus;whiteSpace=wrap;html=1;" parent="1" vertex="1">
          <mxGeometry x="145" y="160" width="110" height="110" as="geometry" />
        </mxCell>
        <mxCell id="aP_WAAHKaWJk4GoByLol-4" value="Set flag to 1" style="rounded=0;whiteSpace=wrap;html=1;" parent="1" vertex="1">
          <mxGeometry x="290" y="185" width="120" height="60" as="geometry" />
        </mxCell>
        <mxCell id="aP_WAAHKaWJk4GoByLol-6" value="Yes" style="text;html=1;align=center;verticalAlign=middle;resizable=0;points=[];autosize=1;strokeColor=none;fillColor=none;" parent="1" vertex="1">
          <mxGeometry x="250" y="190" width="40" height="20" as="geometry" />
        </mxCell>
        <mxCell id="aP_WAAHKaWJk4GoByLol-10" value="" style="edgeStyle=orthogonalEdgeStyle;rounded=0;orthogonalLoop=1;jettySize=auto;html=1;" parent="1" source="aP_WAAHKaWJk4GoByLol-7" target="aP_WAAHKaWJk4GoByLol-9" edge="1">
          <mxGeometry relative="1" as="geometry" />
        </mxCell>
        <mxCell id="aP_WAAHKaWJk4GoByLol-7" value="Pulse takes the value of the counter" style="rounded=0;whiteSpace=wrap;html=1;" parent="1" vertex="1">
          <mxGeometry x="140" y="310" width="120" height="60" as="geometry" />
        </mxCell>
        <mxCell id="aP_WAAHKaWJk4GoByLol-12" value="" style="edgeStyle=orthogonalEdgeStyle;rounded=0;orthogonalLoop=1;jettySize=auto;html=1;" parent="1" source="aP_WAAHKaWJk4GoByLol-9" target="aP_WAAHKaWJk4GoByLol-11" edge="1">
          <mxGeometry relative="1" as="geometry" />
        </mxCell>
        <mxCell id="aP_WAAHKaWJk4GoByLol-9" value="Stop the timer and reset the counter" style="rounded=0;whiteSpace=wrap;html=1;" parent="1" vertex="1">
          <mxGeometry x="140" y="400" width="120" height="60" as="geometry" />
        </mxCell>
        <mxCell id="aP_WAAHKaWJk4GoByLol-14" value="" style="edgeStyle=orthogonalEdgeStyle;rounded=0;orthogonalLoop=1;jettySize=auto;html=1;" parent="1" source="aP_WAAHKaWJk4GoByLol-11" target="aP_WAAHKaWJk4GoByLol-13" edge="1">
          <mxGeometry relative="1" as="geometry" />
        </mxCell>
        <mxCell id="aP_WAAHKaWJk4GoByLol-11" value="Reset flag and loop++" style="rounded=0;whiteSpace=wrap;html=1;" parent="1" vertex="1">
          <mxGeometry x="140" y="490" width="120" height="60" as="geometry" />
        </mxCell>
        <mxCell id="aP_WAAHKaWJk4GoByLol-16" value="" style="edgeStyle=orthogonalEdgeStyle;rounded=0;orthogonalLoop=1;jettySize=auto;html=1;" parent="1" source="aP_WAAHKaWJk4GoByLol-13" target="aP_WAAHKaWJk4GoByLol-15" edge="1">
          <mxGeometry relative="1" as="geometry" />
        </mxCell>
        <mxCell id="aP_WAAHKaWJk4GoByLol-18" value="" style="edgeStyle=orthogonalEdgeStyle;rounded=0;orthogonalLoop=1;jettySize=auto;html=1;" parent="1" source="aP_WAAHKaWJk4GoByLol-13" target="aP_WAAHKaWJk4GoByLol-17" edge="1">
          <mxGeometry relative="1" as="geometry" />
        </mxCell>
        <mxCell id="aP_WAAHKaWJk4GoByLol-13" value="Is loop &amp;gt; 5" style="rhombus;whiteSpace=wrap;html=1;" parent="1" vertex="1">
          <mxGeometry x="160" y="585" width="80" height="80" as="geometry" />
        </mxCell>
        <mxCell id="aP_WAAHKaWJk4GoByLol-19" style="edgeStyle=orthogonalEdgeStyle;rounded=0;orthogonalLoop=1;jettySize=auto;html=1;exitX=0.5;exitY=1;exitDx=0;exitDy=0;entryX=0.5;entryY=0;entryDx=0;entryDy=0;" parent="1" source="aP_WAAHKaWJk4GoByLol-15" target="aP_WAAHKaWJk4GoByLol-17" edge="1">
          <mxGeometry relative="1" as="geometry" />
        </mxCell>
        <mxCell id="aP_WAAHKaWJk4GoByLol-15" value="Disable INT0" style="rounded=0;whiteSpace=wrap;html=1;" parent="1" vertex="1">
          <mxGeometry x="280" y="595" width="120" height="60" as="geometry" />
        </mxCell>
        <mxCell id="aP_WAAHKaWJk4GoByLol-17" value="END" style="rounded=1;whiteSpace=wrap;html=1;" parent="1" vertex="1">
          <mxGeometry x="140" y="710" width="120" height="60" as="geometry" />
        </mxCell>
      </root>
    </mxGraphModel>
  </diagram>
</mxfile>
